<?xml version="1.0" encoding="utf-8"?>
<!-- Generator: Adobe Illustrator 16.0.1, SVG Export Plug-In . SVG Version: 6.00 Build 0)  -->
<!DOCTYPE svg PUBLIC "-//W3C//DTD SVG 1.1//EN" "http://www.w3.org/Graphics/SVG/1.1/DTD/svg11.dtd">
<svg version="1.1" id="Layer_1" xmlns="http://www.w3.org/2000/svg" xmlns:xlink="http://www.w3.org/1999/xlink" x="0px" y="0px"
	 width="72px" height="54.15px" viewBox="0 0 72 54.15" enable-background="new 0 0 72 54.15" xml:space="preserve">
<g>
	<path fill="#FF9012" d="M60.425-0.004H48.851c-6.396,0-11.577,5.18-11.577,11.575v33.25l8.682-7.264V8.677h17.363v14.362L72,15.777
		v-4.207C72,5.175,66.82-0.004,60.425-0.004z"/>
	<path fill="#1D1D1D" d="M35.019,9.164v33.413c0,6.396-5.18,11.575-11.576,11.575H11.868c-6.395,0-11.576-5.179-11.576-11.575
		v-4.369l8.682-7.262v14.526h17.363V16.428L35.019,9.164z"/>
	<linearGradient id="SVGID_1_" gradientUnits="userSpaceOnUse" x1="8.9741" y1="49.8105" x2="26.3369" y2="49.8105">
		<stop  offset="0" style="stop-color:#231F20"/>
		<stop  offset="0.2896" style="stop-color:#404041"/>
		<stop  offset="0.6938" style="stop-color:#404041"/>
		<stop  offset="1" style="stop-color:#000000"/>
	</linearGradient>
	<path fill="url(#SVGID_1_)" d="M8.974,45.472h17.363v8.314c0,0-1.335,0.357-2.566,0.363H11.6c0,0-1.385,0.035-2.625-0.359V45.472z"
		/>
	<linearGradient id="SVGID_2_" gradientUnits="userSpaceOnUse" x1="45.9551" y1="4.335" x2="55.5146" y2="4.335">
		<stop  offset="0" style="stop-color:#F05A28"/>
		<stop  offset="1" style="stop-color:#F05A28;stop-opacity:0"/>
	</linearGradient>
	<path fill="url(#SVGID_2_)" d="M55.515,8.674h-9.56V0.36c0,0,0.735-0.358,1.412-0.363h6.701c0,0,0.762-0.034,1.446,0.36V8.674z"/>
	
		<linearGradient id="SVGID_3_" gradientUnits="userSpaceOnUse" x1="2070.9629" y1="4.335" x2="2079.6455" y2="4.335" gradientTransform="matrix(-1 0 0 1 2134.2812 0)">
		<stop  offset="0" style="stop-color:#F05A28"/>
		<stop  offset="1" style="stop-color:#F05A28;stop-opacity:0"/>
	</linearGradient>
	<path fill="url(#SVGID_3_)" d="M54.636,8.674h8.683V0.36c0,0-0.666-0.358-1.283-0.363h-6.086c0,0-0.692-0.034-1.313,0.36V8.674z"/>
</g>
</svg>
